<svg xmlns="http://www.w3.org/2000/svg" width="48" height="48" viewBox="0 0 48 48">
  <defs>
    <style>
      .cls-1 {
        fill: #fff;
        fill-rule: evenodd;
      }
    </style>
  </defs>
  <path id="ic_f" class="cls-1" d="M1352.02,1129a24,24,0,1,1-24.02,23.97A23.972,23.972,0,0,1,1352.02,1129Zm-6.52,24.06h1.8c0.63,0,.63,0,0.63.61v11.51c0,0.64.01,0.65,0.66,0.65h4.13c0.71,0,.72,0,0.72-0.69v-11.42c0-.66,0-0.66.66-0.66h2.92c0.13-1.55.27-3.05,0.41-4.6h-0.61c-0.97,0-1.94-.02-2.91.01a0.393,0.393,0,0,1-.48-0.49c0.02-.72,0-1.44.01-2.16a0.933,0.933,0,0,1,1.05-1.04c0.79,0,1.57-.01,2.35,0a0.373,0.373,0,0,0,.47-0.45c-0.01-1.24-.01-2.47,0-3.71a0.341,0.341,0,0,0-.4-0.42c-1.52.03-3.04,0-4.55,0.1a4.5,4.5,0,0,0-4.23,3.86,29.1,29.1,0,0,0-.19,3.74c-0.01.42-.1,0.6-0.55,0.57-0.62-.04-1.25-0.01-1.89-0.01v4.6Z" transform="translate(-1328 -1129)"/>
</svg>
