<svg xmlns="http://www.w3.org/2000/svg" width="48" height="48" viewBox="0 0 48 48">
  <defs>
    <style>
      .cls-1 {
        fill: #fff;
        fill-rule: evenodd;
      }
    </style>
  </defs>
  <path id="ic_vk" class="cls-1" d="M1283.02,1128a24,24,0,1,0,23.98,24.01A23.972,23.972,0,0,0,1283.02,1128Zm13.46,18.04a4.569,4.569,0,0,1-.3,1.14,20.32,20.32,0,0,1-2.76,4.12c-0.47.59-.91,1.21-1.33,1.83a1.226,1.226,0,0,0,.15,1.67c0.53,0.58,1.09,1.12,1.63,1.7a27.62,27.62,0,0,1,1.91,2.13,4.335,4.335,0,0,1,.64,1.51,0.819,0.819,0,0,1-.67,1.05,5.886,5.886,0,0,1-1.45.19c-1.3-.01-2.59-0.05-3.89-0.1a1.9,1.9,0,0,1-1.28-.58c-0.58-.57-1.15-1.14-1.73-1.71-0.46-.45-0.93-0.91-1.41-1.35a0.7,0.7,0,0,0-1.21.23,4.876,4.876,0,0,0-.41,1.31c-0.09.49-.12,1-0.17,1.5a0.506,0.506,0,0,1-.49.53,22.863,22.863,0,0,1-2.61.1,10.846,10.846,0,0,1-7.99-4.6,47.611,47.611,0,0,1-5.56-9.13,8.236,8.236,0,0,1-.47-1.63,0.467,0.467,0,0,1,.42-0.58,11.154,11.154,0,0,1,1.52-.23c1.02-.03,2.05.02,3.07-0.01a1.169,1.169,0,0,1,1.16.67c0.62,1.23,1.23,2.47,1.87,3.7,0.38,0.72.78,1.44,1.19,2.15a2.743,2.743,0,0,0,.38.45,0.93,0.93,0,0,0,1.76-.53,14.962,14.962,0,0,0-.02-4.12,1.566,1.566,0,0,0-1.54-1.57,0.42,0.42,0,0,1-.13-0.09,1.713,1.713,0,0,1,1.18-1.13,9.982,9.982,0,0,1,1.96-.46,6.769,6.769,0,0,1,3.55.46,1.223,1.223,0,0,1,.82,1.07c0.05,0.66.03,1.32,0.04,1.98,0.02,1.3.04,2.6,0.07,3.9a0.185,0.185,0,0,0,.02.07,0.833,0.833,0,0,0,.52.81,1.232,1.232,0,0,0,.85-0.4,12.509,12.509,0,0,0,2.27-3.39c0.48-.91.94-1.84,1.38-2.78a1.148,1.148,0,0,1,1.16-.71c1.48,0.01,2.95,0,4.43.01a4.824,4.824,0,0,1,.98.14A0.59,0.59,0,0,1,1296.48,1146.04Z" transform="translate(-1259 -1128)"/>
</svg>
