<svg xmlns="http://www.w3.org/2000/svg" width="48" height="48" viewBox="0 0 48 48">
  <defs>
    <style>
      .cls-1 {
        fill: #fff;
        fill-rule: evenodd;
      }
    </style>
  </defs>
  <path id="ic_web" class="cls-1" d="M1420,1131a22,22,0,1,1-22,22,22.026,22.026,0,0,1,22-22m0-2a24,24,0,1,0,24,24,23.993,23.993,0,0,0-24-24h0Zm13,30h-2v-13a1.9,1.9,0,0,0-1.9-2h-18.2a1.9,1.9,0,0,0-1.9,2v13h-2v1.07a1.755,1.755,0,0,0,1.95,1.93c3.71-.01,18.39-0.01,22.1,0a1.755,1.755,0,0,0,1.95-1.93V1159Zm-4,0c-2.12,0-4.88.01-7,0a1.044,1.044,0,0,1-1,1h-2a0.91,0.91,0,0,1-1-1h-7v-13h18v13Z" transform="translate(-1396 -1129)"/>
</svg>
