<svg xmlns="http://www.w3.org/2000/svg" width="180" height="74" viewBox="0 0 180 74">
  <defs>
    <style>
      .cls-1 {
        fill: #fff;
        fill-rule: evenodd;
      }
    </style>
  </defs>
  <path id="logo" class="cls-1" d="M1313.29,623.327a2.9,2.9,0,0,1-2.64,1.682H1268.3c-7.85,0-9.3,5.02-9.3,5.02V616.023a8.989,8.989,0,0,1,9.02-8.955h50.99a1.158,1.158,0,0,1,1.06,1.638Zm-9.6,20.961a3.494,3.494,0,0,1-3.17,2.025H1268.3c-7.85,0-9.3,5.02-9.3,5.02v-14a8.989,8.989,0,0,1,9.02-8.956h41.19a1.157,1.157,0,0,1,1.06,1.636Zm-22.81,23.43h-12.84a9.007,9.007,0,0,1-9.04-8.971v-0.014a8.989,8.989,0,0,1,9.02-8.956h4.15a3.493,3.493,0,0,1,3.17,2.021l6.6,14.283A1.154,1.154,0,0,1,1280.88,667.718Zm135.17-39.431h-5.89a2.6,2.6,0,0,0-2.61,2.6v32.81c0,1.385-.2,6.1-3.13,7.131a8.888,8.888,0,0,1-2.46.41,2.448,2.448,0,0,0-2.08,1.171,25.741,25.741,0,0,0-2.46,5.263,1.848,1.848,0,0,0,.81,2.4,9.734,9.734,0,0,0,2.22.617,19.781,19.781,0,0,0,3.6.314,19.059,19.059,0,0,0,6.84-1.112,11.621,11.621,0,0,0,4.77-3.312,13.543,13.543,0,0,0,2.44-5.511,31.562,31.562,0,0,0,.56-7.711V630.883A2.614,2.614,0,0,0,1416.05,628.287ZM1352.7,607.93a9.786,9.786,0,0,0-2.22-.617,19.941,19.941,0,0,0-3.6-.314,19.093,19.093,0,0,0-6.85,1.113,11.61,11.61,0,0,0-4.77,3.311,13.827,13.827,0,0,0-2.71,5.511,30.655,30.655,0,0,0-.83,7.711v3.642h-2.21a2.667,2.667,0,0,0-2.38,1.552l-1.26,2.751-1.54,3.226a1.549,1.549,0,0,0,1.48,2.2h5.91v27.253a2.608,2.608,0,0,0,2.61,2.6h6.54a2.6,2.6,0,0,0,2.61-2.6V638.021h1.31a2.617,2.617,0,0,0,2.62-2.6v-4.542a2.616,2.616,0,0,0-2.62-2.6h-1.31v-3.98c0-1.386.15-6.1,3.08-7.131a8.6,8.6,0,0,1,2.43-.411,2.444,2.444,0,0,0,2.07-1.171,25.678,25.678,0,0,0,2.45-5.264A1.856,1.856,0,0,0,1352.7,607.93Zm45.21,58.756a10.2,10.2,0,0,0,1.75-2.793,12.64,12.64,0,0,0,1.26-3.831c0.1-1.337-1.3-1.65-1.89-1.642-1.04.015-1.67,0.018-2.08,0.018a6.134,6.134,0,0,1-2.18-.411c-2.94-1.033-2.91-5.745-2.91-7.131V638.021h2.22a2.51,2.51,0,0,0,2.37-1.4l1.27-2.677,1.54-3.337a1.634,1.634,0,0,0-1.48-2.317h-5.92v-11.68a2.605,2.605,0,0,0-2.62-2.6h-6.53a2.605,2.605,0,0,0-2.62,2.6v11.68h-1.31a2.614,2.614,0,0,0-2.61,2.6v4.542a2.615,2.615,0,0,0,2.61,2.6h1.31v12.537a30.694,30.694,0,0,0,.67,7.711,13.534,13.534,0,0,0,2.57,5.511,12.065,12.065,0,0,0,4.76,3.312,18.089,18.089,0,0,0,5.87,1.111A4.981,4.981,0,0,0,1397.91,666.686Zm-30.17-35.8a2.6,2.6,0,0,0-2.61-2.6h-6.54a2.6,2.6,0,0,0-2.61,2.6v34.391a2.6,2.6,0,0,0,2.61,2.6h6.54a2.6,2.6,0,0,0,2.61-2.6V630.883Zm-5.35-17.521h-1.08a5.357,5.357,0,0,0-5.43,4.894,5.222,5.222,0,0,0,5.24,5.489h1.08a5.34,5.34,0,0,0,5.42-4.894A5.208,5.208,0,0,0,1362.39,613.362ZM1439,630.883a2.606,2.606,0,0,0-2.62-2.6h-6.53a2.606,2.606,0,0,0-2.62,2.6v34.391a2.607,2.607,0,0,0,2.62,2.6h6.53a2.607,2.607,0,0,0,2.62-2.6V630.883Zm-6.51-7.138h1.08a5.34,5.34,0,0,0,5.42-4.894,5.21,5.21,0,0,0-5.24-5.489h-1.07a5.357,5.357,0,0,0-5.43,4.894A5.21,5.21,0,0,0,1432.49,623.745Zm-18.75-10.383h-1.08a5.354,5.354,0,0,0-5.42,4.894,5.21,5.21,0,0,0,5.24,5.489h1.07a5.356,5.356,0,0,0,5.43-4.894A5.21,5.21,0,0,0,1413.74,613.362Z" transform="translate(-1259 -607)"/>
</svg>
