<?xml version="1.0" standalone="no"?>
<!DOCTYPE svg PUBLIC "-//W3C//DTD SVG 1.1//EN" "http://www.w3.org/Graphics/SVG/1.1/DTD/svg11.dtd" >
<svg xmlns="http://www.w3.org/2000/svg" xmlns:xlink="http://www.w3.org/1999/xlink" version="1.1">
<metadata></metadata>
<defs>
<font id="prototypstermedium" horiz-adv-x="2048" >
<font-face units-per-em="2048" ascent="1536" descent="-512" />
<missing-glyph horiz-adv-x="419" />
<glyph horiz-adv-x="0" />
<glyph horiz-adv-x="682" />
<glyph horiz-adv-x="0" />
<glyph horiz-adv-x="0" />
<glyph unicode="&#xd;" />
<glyph unicode=" "  horiz-adv-x="419" />
<glyph unicode="&#x09;" horiz-adv-x="419" />
<glyph unicode="&#xa0;" horiz-adv-x="419" />
<glyph unicode="!" horiz-adv-x="516" d="M133 682v192q8 78 6 166t6 181q2 31 5.5 73.5t15.5 79.5t36.5 56.5t69.5 5.5q20 -6 33.5 -30t21 -57.5t10.5 -73.5t7 -79q10 -147 14 -301t-14 -295q-4 -29 -8 -65.5t-12.5 -71.5t-21.5 -61.5t-36 -34.5q-55 -20 -81.5 8t-36 79.5t-10.5 115t-5 112.5zM150 51 q-16 61 9 94t66 42.5t83.5 -6t58.5 -48.5q14 -57 -11.5 -91t-65.5 -43t-81 4t-59 48z" />
<glyph unicode="&#x22;" horiz-adv-x="573" d="M68 1057q2 45 14 97t6 124q-4 31 -14.5 57.5t-5.5 46.5q2 12 15 23.5t31.5 18t41 6.5t43.5 -11q25 -12 44 -54t28.5 -94t5 -102.5t-26.5 -78.5q-10 -14 -32.5 -27.5t-49.5 -21t-54.5 -5t-45.5 20.5zM324 1055q-4 39 12 90t14 110q-2 29 -11 57.5t-5 53.5q6 33 43 47 t78 -2q37 -16 55 -62t17 -99.5t-19.5 -103.5t-52.5 -75q-27 -16 -60.5 -24t-70.5 8z" />
<glyph unicode="#" horiz-adv-x="829" d="M8 524.5q4 30.5 41 54t107 15.5q16 57 27.5 116.5t25.5 118.5q-70 -2 -96.5 24t-18.5 56.5t48 54t104 17.5q20 31 28.5 92.5t18.5 122.5t32.5 108.5t71.5 47.5q53 0 68.5 -40t11.5 -96.5t-17.5 -117t-15.5 -101.5q16 -10 44 -6t51 0q16 33 25 81t26 97q14 41 30.5 85 t40 72t56.5 29t78 -44q0 -49 -7.5 -89t-18.5 -77t-22.5 -73t-19.5 -75q51 2 76.5 -26.5t24.5 -61t-31.5 -56.5t-91.5 -13q-29 -49 -40.5 -119t-27.5 -131q53 0 77.5 -27.5t21.5 -59.5t-33.5 -54.5t-92.5 -12.5q-18 -31 -26.5 -76t-18.5 -96q-10 -41 -22.5 -90t-30.5 -72 q-14 -16 -37.5 -22t-47.5 -3t-43 16t-24 36q-8 33 8.5 76t22.5 80q8 43 15.5 80.5t17.5 76.5q-18 10 -49 6t-56 1q-29 -29 -38 -83.5t-16 -111.5t-20.5 -108.5t-45.5 -73.5q-14 -10 -35 -13.5t-41.5 2t-35.5 16.5t-19 32q-4 16 -1 36.5t9 42t13 44t9 42.5q8 47 15.5 87 t17.5 81q-68 -4 -97.5 24t-25.5 58.5zM342 592q29 -2 58.5 -1t52.5 -5q10 66 24.5 125t28.5 120q-29 -2 -62 1t-49 -1q-14 -59 -25.5 -120.5t-27.5 -118.5z" />
<glyph unicode="$" horiz-adv-x="829" d="M74 287q4 31 27.5 51t55 27.5t64.5 1t58 -28.5q18 -18 27 -38.5t17.5 -41t17.5 -37t30 -26.5q53 -14 90 4t58.5 57t29.5 90t4 103.5t-20.5 98.5t-43.5 75q-33 33 -78.5 60.5t-96 56t-97.5 64.5t-80 87q-45 70 -49 149.5t22.5 150.5t77 125t115.5 75q-12 51 0 101t40 82 t63.5 37t72.5 -32q27 -27 26 -76t-3 -100q59 -25 101 -41t81 -55q25 -27 53.5 -81.5t26.5 -107.5q-2 -31 -19.5 -56.5t-43 -39.5t-56.5 -14t-57 18q-23 16 -34 50t-25.5 67t-38 56.5t-68.5 21.5q-45 -4 -67.5 -39t-25.5 -81t10 -94.5t38 -76.5q27 -31 61.5 -53.5t74.5 -43 t80 -45t75 -57.5q57 -55 87.5 -134t35 -162t-18 -160.5t-72.5 -131.5q-16 -18 -32.5 -29.5t-34 -21.5t-39 -22.5t-47.5 -34.5q-8 -25 -8 -46.5t1 -41t-1 -39t-15 -39.5q-16 -29 -47 -39t-64.5 -7t-62 16.5t-37.5 35.5q-12 31 -3 70t9 80q-39 6 -84 30.5t-82.5 60.5t-61 81 t-17.5 90z" />
<glyph unicode="%" horiz-adv-x="1290" d="M73 1097.5q-7 63.5 9 131.5q12 53 47 107.5t83 88t103.5 35.5t110.5 -49q55 8 95 -12.5t64.5 -60.5t33 -94t-4.5 -114q-8 -49 -38.5 -102t-76.5 -95t-107.5 -65.5t-131.5 -11.5q-51 8 -91 43t-64.5 85t-31.5 113.5zM279 53q-4 14 1 36t16 47.5t23.5 53t22.5 52.5 q20 51 38.5 100t35.5 84q45 88 74.5 172t76.5 188q31 72 59.5 136.5t57.5 129t58.5 132t64.5 141.5q12 27 24.5 57.5t27.5 58t34.5 48t48.5 24.5q53 6 70.5 -18.5t12.5 -64t-22.5 -86t-31.5 -82.5q-29 -76 -58.5 -142.5t-59.5 -131t-60.5 -131t-61.5 -140.5 q-23 -49 -37 -97.5t-37 -91.5q-23 -45 -44 -86t-42.5 -83t-43 -88t-42.5 -99q-10 -23 -19 -49.5t-19.5 -50t-23.5 -42t-30 -24.5q-29 -10 -66.5 1t-47.5 46zM282.5 1099q6.5 -50 24.5 -89q39 16 63.5 56t33 89t-1 99.5t-37.5 86.5q-35 -16 -55.5 -56t-27 -88t0 -98zM694 199 q-10 68 9.5 139.5t56.5 131.5t89 102.5t109 50.5q25 4 47.5 -6.5t51.5 -10.5q27 0 48 -2t38 -10q47 -25 69.5 -67t25.5 -92t-11.5 -104.5t-41 -102.5t-63.5 -86t-78 -58q-47 -23 -104 -26t-109.5 11.5t-90.5 47.5t-46 82zM899 304q-4 -40 8 -83q35 0 63.5 32t43 77t11.5 92 t-32 80q-18 -25 -39.5 -55.5t-36 -66.5t-18.5 -76z" />
<glyph unicode="&#x26;" horiz-adv-x="983" d="M145 272q-12 72 1.5 142.5t42 133t67.5 114t78 86.5q-27 55 -57.5 117.5t-51 130t-21.5 138t34 140.5q16 37 48.5 68.5t72.5 56t83 40t80 17.5q55 2 105.5 -21.5t87.5 -67.5t57.5 -103.5t15.5 -126.5q-4 -63 -26.5 -113.5t-53 -93.5t-64 -85t-60.5 -87q29 -63 61.5 -125 t65.5 -121q12 12 15 26.5t3 28t1 27.5t9 27q14 27 44 37t62 8t60.5 -16.5t40.5 -39.5q-2 -49 -14 -89t-30.5 -73.5t-41 -63.5t-45.5 -60q12 -31 30.5 -66t32 -74t18.5 -80t-7 -84q-43 -25 -79 -16.5t-64.5 34t-52 60.5t-38.5 66q-55 -68 -137 -91.5t-159.5 -7t-138 68.5 t-75.5 138zM380 381q-3 -51 7 -95.5t41 -62.5q35 20 65.5 44t67.5 42q-33 66 -64.5 129.5t-72.5 116.5q-16 -27 -28.5 -75t-15.5 -99zM418.5 1170.5q-0.5 -50.5 11.5 -97.5t33.5 -91t40.5 -77q10 14 29.5 39t40 54.5t36 62t19.5 67.5q6 51 -8.5 91.5t-42 62t-62.5 19 t-70 -34.5q-27 -45 -27.5 -95.5z" />
<glyph unicode="'" horiz-adv-x="380" d="M81 1142q1 46 3 99t1 93t5 68t26.5 44t67.5 22q45 6 74 -24.5t42 -82.5t14 -118.5t-9 -136.5q-8 -47 -37.5 -84t-83.5 -35q-43 0 -65.5 19.5t-30.5 54.5t-7 81z" />
<glyph unicode="(" horiz-adv-x="518" d="M77 526.5q1 135.5 26.5 268.5t74.5 249q27 63 51.5 113.5t53.5 114.5q12 29 32.5 74t47 79.5t62.5 46t79 -25.5q-20 -90 -53 -159.5t-58 -153.5q-35 -113 -54.5 -257.5t-20.5 -295t18.5 -296t62.5 -259.5q8 -27 23.5 -48.5t28 -41t20.5 -40t2 -45.5q-4 -16 -22.5 -39.5 t-57.5 -23.5q-37 -2 -72.5 25.5t-65.5 66.5t-52.5 82t-36.5 74q-47 102 -68.5 229t-20.5 262.5z" />
<glyph unicode=")" horiz-adv-x="518" d="M94 1440q37 43 71 38t62.5 -33t50 -66t33.5 -62q27 -53 47.5 -95t39 -83t36 -86t37.5 -107q33 -100 46 -225t7 -251t-32.5 -241.5t-73.5 -195.5q-14 -23 -43 -56.5t-86 -113.5q-8 -12 -35 -31.5t-57.5 -32t-58 -8.5t-38.5 41q-6 18 0 37.5t17.5 39t24 37t18.5 34.5 q70 156 113.5 357.5t27.5 436.5q-4 43 -10 92t-15.5 97.5t-20.5 93.5t-26 82q-16 39 -36.5 73.5t-40 69.5t-36 73t-22.5 85z" />
<glyph unicode="*" horiz-adv-x="763" d="M37 932q-2 31 23.5 47t60.5 26.5t68.5 21.5t48.5 32q-8 23 -39 42t-65 38.5t-59.5 43t-25.5 54.5q0 47 36 55t80 -5t84 -37.5t48 -41.5q6 20 6 38t-2 35t-3 34.5t3 38.5q6 27 26.5 42t43 19t45 -3t35.5 -26q10 -14 11 -35.5t-1 -48t-6 -53t-4 -51.5q20 -4 43.5 7.5 t47 25.5t48 27.5t51.5 13.5q35 2 61.5 -12.5t30.5 -45.5q2 -35 -21.5 -55t-58.5 -33.5t-70.5 -24.5t-56.5 -30q14 -14 33 -45t47 -53q10 -8 22.5 -12.5t23 -9.5t17.5 -12t7 -24q2 -41 -32 -53t-76 -7t-80.5 25.5t-47.5 47.5v-156q-10 -16 -30.5 -25.5t-44 -9.5t-45 8.5 t-29.5 26.5q-2 41 -6 79t0 81q-20 -12 -61.5 -26.5t-81.5 -20.5t-71.5 2t-33.5 45z" />
<glyph unicode="+" horiz-adv-x="829" d="M18 590q0 39 34 56.5t83 22.5t105.5 3t99.5 2q12 31 9 66.5t-9 70.5t-11 69.5t5 65.5q8 27 31.5 42.5t51 18.5t54.5 -6.5t43 -31.5q18 -25 22.5 -60t4.5 -73.5t-1 -78.5t9 -77q45 0 93 1t88 -5t65.5 -24.5t23.5 -55.5q-2 -35 -27.5 -50.5t-62.5 -19.5t-81 -3t-83 -1 q-10 -29 -8 -67.5t5 -77.5t3 -76t-10 -61q-10 -20 -33.5 -30.5t-50.5 -10.5t-51.5 9t-34.5 28q-16 27 -17 64.5t2 75.5t4 74.5t-12 65.5q-43 4 -101 0t-112.5 -3t-92.5 16.5t-38 60.5z" />
<glyph unicode="," horiz-adv-x="438" d="M23.5 141q9.5 45 36 81t67.5 54.5t94 4.5q31 -10 62.5 -29.5t54.5 -52.5q8 -55 2 -133t-28.5 -149t-62.5 -117t-99 -38q-31 4 -35 30t5 57.5t24.5 64.5t23.5 53q-61 -4 -96 22.5t-46.5 66.5t-2 85z" />
<glyph unicode="-" horiz-adv-x="747" d="M39 561q0 45 14.5 64.5t42 25.5t67.5 3t89 1q41 2 92 2.5t137 4.5q49 2 90 3t71 -5.5t46.5 -26t13.5 -58.5q-2 -29 -17 -45t-43 -25t-63.5 -11t-78.5 -5q-61 -4 -112.5 -8t-111.5 0q-47 4 -89 4t-75.5 6.5t-53 20.5t-19.5 49z" />
<glyph unicode="." horiz-adv-x="432" d="M74 80q-10 37 0 68.5t29.5 55t47 39t56.5 19.5q55 10 96 -8t59.5 -52t11.5 -76t-46 -79q-23 -20 -62 -31.5t-79 -8.5t-72.5 20.5t-40.5 52.5z" />
<glyph unicode="/" horiz-adv-x="559" d="M-4 -6q-4 14 0 37.5t12 51.5t18.5 55.5t16.5 49.5q14 53 23.5 95.5t23.5 95.5q12 47 27.5 89t31 85t28.5 90t26 102q29 143 60.5 288t76.5 298q8 29 16.5 60.5t20.5 59.5t30.5 47.5t49.5 23.5q43 4 63.5 -18.5t25.5 -62.5t-2 -91.5t-18.5 -102.5t-24 -98t-20.5 -78 q-12 -55 -23.5 -104t-20.5 -96.5t-20 -96.5t-24 -106q-27 -111 -60.5 -198t-58.5 -181q-10 -33 -22 -86t-29.5 -107.5t-41 -96.5t-54.5 -52q-23 -6 -44.5 -4t-39.5 10t-31.5 19.5t-15.5 21.5z" />
<glyph unicode="0" horiz-adv-x="829" d="M84 848q-12 131 3 243.5t56 190.5q14 27 38 52.5t52.5 47t63.5 37t74 19.5q82 10 149.5 -12.5t116.5 -70.5t78.5 -118t36.5 -152q6 -78 7 -136t0 -114.5t-4 -117t-3 -139.5q0 -92 -5.5 -180.5t-23.5 -162t-52 -129t-91 -83.5q-61 -29 -125 -31t-122.5 17.5t-105.5 54 t-71 79.5q-35 59 -45.5 130t-10.5 151t4.5 166t-2.5 174q-2 23 -9 42t-9 42zM293 745q16 -74 17 -165t9.5 -176t32 -151.5t84.5 -92.5q27 29 41.5 75t21.5 102t8 118.5t1 128.5q0 133 2 263t-8 232q-2 31 -13.5 71t-29 71.5t-40 44t-48.5 -12.5q-35 -33 -42 -103.5t-6 -148 t-2.5 -149.5t-27.5 -107z" />
<glyph unicode="1" horiz-adv-x="829" d="M180 1090q-4 25 9.5 48t36 46.5t50 50.5t52.5 57q16 20 29.5 46t29.5 49.5t37.5 39t56.5 17.5q25 0 42.5 -7t30.5 -19.5t25.5 -29t26.5 -32.5q12 -121 17.5 -266.5t4.5 -299t-5.5 -303t-10.5 -276.5q-2 -45 1 -96.5t-13 -77.5q-12 -23 -40 -32t-58.5 -7t-57 16t-36.5 39 q-6 266 2 526.5t10 538.5q-8 -16 -44 -37.5t-77 -33t-76 -5t-43 47.5z" />
<glyph unicode="2" horiz-adv-x="829" d="M92 145.5q0 51.5 12 100.5q20 88 64.5 163.5t95.5 147.5t102.5 142.5t86 151.5t47 177t-14.5 215q-61 2 -98 -22.5t-59 -75.5q-8 -16 -11.5 -37t-6.5 -41t-8 -37.5t-15 -30.5q-16 -18 -40 -24t-48.5 -4t-45 12t-30.5 27q-16 27 -16.5 62.5t9 70.5t24 65.5t24.5 46.5 q39 59 115.5 102.5t158.5 53.5t156 -19.5t106 -113.5q25 -63 24 -135t-5 -127q-6 -72 -34 -139.5t-64.5 -132t-77.5 -124t-76 -112.5q-25 -37 -47.5 -67.5t-42 -62.5t-36 -70t-26.5 -91q33 6 97.5 6t129 -10t112.5 -31.5t53 -58.5q4 -47 -24 -65.5t-65.5 -21.5t-78.5 2 t-64 9t-50.5 7t-51.5 -3q-27 -8 -59.5 -23.5t-67.5 -25.5q-57 -16 -90 1t-48.5 54t-15.5 88.5z" />
<glyph unicode="3" horiz-adv-x="829" d="M90 303q27 59 80 70q53 10 87 -12.5t50 -49.5q10 -18 14.5 -41.5t9.5 -46t17 -40t37 -19.5q39 -6 71.5 23.5t55.5 75.5t35 99.5t10 96.5q-2 66 -21.5 123t-50.5 80q-18 12 -48.5 16t-61.5 11t-54.5 23.5t-25.5 53.5q-2 47 38 64.5t93 21.5q41 41 66.5 95t29.5 145 q0 27 -1 55.5t-6 55t-13 45t-23 22.5q-43 16 -72.5 -9.5t-54 -63.5t-47 -76t-51.5 -48q-41 -12 -77 2.5t-48 46.5q-10 27 -6 58.5t16.5 62.5t29.5 58.5t36 48.5q51 57 130 83.5t156.5 18.5t142 -50t89.5 -120q14 -43 16 -100.5t-3 -113.5t-16 -105.5t-26 -79.5 q-4 -8 -15 -23.5t-23.5 -31t-22.5 -29t-10 -15.5q0 -6 14 -20t31.5 -30.5t34 -32t20.5 -21.5q43 -72 56.5 -150.5t1 -155.5t-48.5 -146.5t-89 -123t-120.5 -85t-143.5 -33.5q-41 0 -86 12t-85 34.5t-72 54.5t-44 71q-29 86 -2 145z" />
<glyph unicode="4" horiz-adv-x="829" d="M61 274q12 78 30 152t38.5 148.5t44 150.5t45.5 160q20 72 37.5 147.5t46.5 153.5q8 27 21.5 64.5t30 75.5t36 69.5t39.5 44.5q18 12 42 14t45.5 -3t37.5 -17.5t20 -30.5q6 -25 -2 -58.5t-22 -69.5t-28.5 -67.5t-20.5 -52.5q-59 -190 -100.5 -378.5t-92.5 -381.5 q41 4 82 9.5t88 3.5q8 43 3 91t-9 92t-2 81t25 61q18 18 43.5 25.5t53.5 4.5t50.5 -15.5t34.5 -32.5q16 -29 19 -66t1 -78t-5 -81.5t3 -75.5q61 2 98 -25t43.5 -59.5t-22.5 -61t-100 -30.5q0 -55 7 -98.5t-13 -82.5q-14 -25 -43 -37t-60 -12t-58.5 11.5t-39.5 31.5 q-10 16 -11 39t0 47.5t1 50t-9 50.5q-53 12 -114.5 3.5t-120.5 -14.5t-110.5 0t-82.5 47z" />
<glyph unicode="5" horiz-adv-x="829" d="M61 868q0 68 1 112t4.5 84t6.5 82t7 103q2 39 4 71t8 54.5t21.5 36.5t44.5 19q39 4 72.5 -16.5t72.5 -33.5q35 -10 81 -15t81 -3t64.5 14.5t56 25.5t47 23.5t37.5 10.5q33 0 57.5 -21.5t26.5 -52.5q4 -59 -47.5 -100t-127 -62.5t-161 -22t-146.5 22.5q-10 -63 -7 -141 t7 -154q45 10 77 21.5t63 15.5q104 12 175.5 -25.5t113.5 -107.5t55.5 -163t3.5 -193q-6 -59 -29.5 -125t-61.5 -125.5t-88.5 -108.5t-109.5 -75.5t-127 -24.5t-137 45q-23 12 -48.5 37.5t-47 57.5t-32.5 68t-5 70q6 37 32.5 54.5t59.5 21.5t64.5 -4t48.5 -22q10 -10 19 -35 t18.5 -51.5t20.5 -48t25 -23.5q10 -2 28 14.5t35 39t31.5 45t20.5 34.5q20 45 35.5 112.5t17.5 137t-14 133t-57 98.5q-49 6 -84 -12t-68 -43t-65.5 -45.5t-77.5 -20.5q-39 2 -59.5 18.5t-29.5 45.5t-11.5 66.5t-2.5 80.5z" />
<glyph unicode="6" horiz-adv-x="829" d="M100 517q-2 114 8.5 232.5t31 226t49 193.5t61.5 134q23 33 82 66.5t127.5 49t134 5t100.5 -67.5q20 -37 18.5 -69t-17 -54.5t-41 -34.5t-50.5 -10q-39 4 -56 24.5t-40 40.5q-47 -25 -71.5 -71.5t-37 -105t-19.5 -123t-18 -126.5q68 16 127.5 14.5t107.5 -18t83 -44 t55 -60.5q31 -53 40 -142.5t1 -183.5t-32.5 -177t-61.5 -122q-55 -57 -129 -78.5t-147.5 -13.5t-137 45t-96.5 96q-35 63 -52.5 161.5t-19.5 212.5zM345 501.5q-5 -71.5 7 -149.5q2 -20 9.5 -51t17.5 -60.5t24.5 -51t32.5 -23.5q23 -4 38 12.5t25.5 41t16.5 52t10 50.5 q8 49 13.5 99t4.5 96t-12.5 85t-35.5 64q-35 12 -78 0.5t-72 -21.5q4 -72 -1 -143.5z" />
<glyph unicode="7" horiz-adv-x="829" d="M92 1333q-4 49 39 70.5t108.5 28t139.5 5.5t129 3q37 2 85 9t94 5t79 -17.5t39 -58.5q4 -37 -21.5 -77.5t-46.5 -90.5q-29 -68 -49 -133t-39.5 -130.5t-40 -131t-45.5 -133.5q20 -10 43 -18.5t42.5 -18.5t32.5 -24.5t13 -36.5q0 -25 -16 -39.5t-41 -21.5t-54.5 -6 t-56.5 9q-8 -25 -21 -60.5t-28.5 -76.5t-31 -84t-25.5 -82q-8 -29 -11 -58.5t-8.5 -56t-14.5 -49t-28 -34.5q-18 -12 -46.5 -16.5t-58.5 -0.5t-55.5 16.5t-37.5 36.5q6 78 20.5 148t33.5 134.5t39.5 128t37.5 130.5q-10 20 -29.5 29.5t-38 16.5t-32 19.5t-13.5 39.5 q2 43 52.5 57t103.5 -6q29 57 50.5 122.5t41.5 132t43 131t51 122.5q-37 2 -75.5 0t-77.5 -6.5t-78 -7.5t-74 1q-16 2 -36.5 8.5t-39 15.5t-32 23.5t-15.5 32.5z" />
<glyph unicode="8" horiz-adv-x="829" d="M68 946q-16 102 4 187.5t66 146.5t109.5 96t135.5 39q23 0 44.5 -7t49.5 -11q35 -4 64.5 0t54.5 -6q55 -23 87 -68t44 -102.5t7 -123t-23.5 -128t-48 -115.5t-66.5 -86q82 -43 129 -123t58.5 -174t-12 -188.5t-81 -165t-147.5 -103t-213 -4.5q-80 18 -129 65.5t-73 111 t-24 137t20.5 143.5t59.5 130t92 99q-74 41 -133 100.5t-75 149.5zM303 1068q-2 -54 10.5 -101t40 -83t70.5 -44q35 29 59.5 89t31.5 127.5t-7 129t-59 92.5q-47 -2 -78 -34t-48.5 -77t-19.5 -99zM330 348q-2 -35 4 -70.5t21.5 -61.5t41 -39t62.5 -1q29 8 48 42t28.5 80 t9.5 98.5t-8.5 99.5t-26.5 80.5t-45 44.5q-12 -2 -34.5 -30t-45.5 -69t-39 -88t-16 -86z" />
<glyph unicode="9" horiz-adv-x="829" d="M51 1042.5q2 77.5 22.5 149.5t61.5 119q27 33 71 65.5t97 55t113.5 27.5t124.5 -17q39 -14 86 -62.5t73 -99.5q45 -84 65.5 -211t20.5 -266t-19 -272.5t-54 -225.5q-20 -53 -68.5 -118.5t-115 -116t-145.5 -68.5t-159 25q-18 8 -38.5 27.5t-38 44t-28.5 54t-9 62.5 q4 33 24.5 63.5t59.5 32.5q33 0 52 -14t33.5 -36.5t27.5 -48.5t36 -44q51 29 85 75t55.5 104.5t33.5 125t23 135.5q-143 -55 -258 -14t-172 151q-31 61 -46.5 140.5t-13.5 157zM277.5 1079.5q1.5 -69.5 17.5 -136t47 -122t66 -78.5q49 23 83.5 62t71.5 76q-8 27 -9 55.5 t-1 57t-1 59t-7 59.5q-6 25 -17.5 55.5t-27 58t-32.5 48t-36 22.5q-14 2 -34.5 -8t-40 -25.5t-35 -32t-21.5 -28.5q-25 -53 -23.5 -122.5z" />
<glyph unicode=":" horiz-adv-x="432" d="M63 84q-6 59 29 104.5t94 51.5q37 4 56.5 -6.5t50.5 -32.5q16 -10 32.5 -16.5t24.5 -22.5q20 -47 8 -81t-42.5 -54.5t-72.5 -28.5t-81 -1t-66.5 28.5t-32.5 58.5zM96 725q12 41 56.5 68.5t91.5 31.5q31 2 62.5 -21.5t48 -57t9 -72.5t-52.5 -68q-29 -18 -71.5 -20 t-79.5 11t-57.5 45t-6.5 83z" />
<glyph unicode=";" horiz-adv-x="438" d="M63 692q-2 49 32.5 89t97.5 46q18 2 46.5 -5t56.5 -22.5t49.5 -37t23.5 -45.5q4 -45 -15.5 -76t-53.5 -47t-74 -18.5t-75.5 10t-60 39t-27.5 67.5zM72 76q-6 45 16.5 81t60 57.5t81.5 23.5t81 -19q57 -33 68.5 -87t-8.5 -146q-8 -37 -27.5 -75t-48.5 -67.5t-67 -42 t-81 3.5q-4 25 5.5 44.5t21.5 39t25.5 39t17.5 41.5q-53 16 -96 36t-49 71z" />
<glyph unicode="&#x3c;" horiz-adv-x="829" d="M29 596q0 20 13 37.5t33.5 34t46 31t48.5 28.5q78 47 176 96t182 92q20 10 45 26.5t50.5 33t52 29t51.5 14.5q41 2 67.5 -19.5t28.5 -50.5q2 -45 -23.5 -76.5t-62.5 -55t-74.5 -39t-60.5 -27.5q-70 -35 -135 -70t-143 -68q63 -37 121.5 -71.5t111.5 -75.5 q18 -14 51 -35.5t65 -47.5t54.5 -52.5t22.5 -50.5q0 -35 -31 -57.5t-72 -22.5q-47 -2 -85 27.5t-79 62.5q-72 53 -144.5 105t-168.5 93q-25 10 -49.5 20.5t-45 23t-33.5 27.5t-13 38z" />
<glyph unicode="=" horiz-adv-x="829" d="M0 776q2 39 39 50.5t74 15.5q33 4 78 5t96 1h105h106h94t91 -7t69.5 -26.5t27.5 -56.5q0 -43 -36.5 -60.5t-94 -20.5t-128 0t-138.5 3q-47 0 -113.5 -2t-128 6t-103.5 28.5t-38 63.5zM29 438q0 25 18.5 40.5t45 23.5t54 11t43.5 3q72 4 132.5 1t121.5 -1q45 2 104.5 7 t114 1t91.5 -22.5t39 -63.5q2 -47 -38 -66.5t-98.5 -24.5t-126 -2t-122.5 3q-45 0 -110 -1t-124 6t-102 26.5t-43 58.5z" />
<glyph unicode="&#x3e;" horiz-adv-x="829" d="M4 256q-2 27 23.5 57.5t61.5 60t72 52.5t54 35q74 47 137 79.5t131 67.5q-66 43 -125 84t-125 78q-25 14 -61.5 33.5t-71 42t-59.5 50.5t-25 58q0 31 28 59.5t69 30.5q18 0 39.5 -8t43 -20t43 -25.5t40.5 -21.5q82 -41 159.5 -89.5t147.5 -91.5q25 -14 60.5 -36.5t67 -46 t55.5 -44t24 -28.5q2 -49 -23 -89t-88 -63q-98 -37 -194.5 -89t-163.5 -103q-29 -23 -69 -61t-97 -48q-29 -6 -56.5 -2t-49 15.5t-35 28t-13.5 34.5z" />
<glyph unicode="?" horiz-adv-x="806" d="M111 1092q-6 33 7 74.5t34.5 82.5t48 74t49.5 49q31 23 80 38.5t90 21.5q113 14 183.5 -29t115.5 -113q29 -47 48 -106.5t24.5 -126t-6 -133t-44.5 -123.5q-14 -29 -34.5 -55.5t-42 -53t-42 -52.5t-32.5 -52q-12 -23 -18.5 -52.5t-11.5 -58t-10 -54.5t-13 -40 q-12 -18 -38 -28.5t-56.5 -9.5t-59.5 12.5t-45 33.5q-16 23 -17.5 58.5t7 74.5t20.5 75t25 60q20 41 50 75t58.5 69t52 76t31.5 96q8 41 4 92t-20 96q-4 12 -11.5 28.5t-17.5 32t-23.5 28t-29.5 16.5q-37 6 -60.5 -6.5t-40 -37t-28.5 -55t-25.5 -59.5t-29 -51.5t-37.5 -30.5 q-18 -6 -40 -5t-41.5 9t-34.5 22.5t-19 37.5zM307 45q-8 33 1 61.5t29.5 50t47 35t51.5 17.5t45.5 2t36.5 -14q16 -10 38 -42t26 -57q6 -51 -32 -79.5t-89 -36t-97.5 9t-56.5 53.5z" />
<glyph unicode="@" horiz-adv-x="1601" d="M162 646q2 97 19.5 189.5t46 174.5t69.5 143q41 63 100.5 115.5t136 87.5t169 50t200.5 7q76 -6 155 -34.5t150.5 -76t131 -111t95 -138t45 -160.5t-19.5 -178q-18 -59 -44.5 -116.5t-64.5 -107t-89.5 -84t-114.5 -49.5q-100 -23 -174 9t-103 104q-57 -37 -125.5 -48 t-127 7.5t-94.5 70.5t-25 144q8 86 49 169t107.5 137.5t153.5 65.5t187 -48q41 23 86 17.5t60 -38.5q14 -31 3 -69.5t-31.5 -76.5t-41 -73t-27.5 -57q-4 -18 -7 -47t-1 -56.5t10.5 -49t24.5 -25.5q20 -6 43 6t44.5 34.5t40 49t30.5 49.5q33 66 51 135.5t8 136.5 q-8 49 -30.5 95.5t-55.5 86t-72.5 72.5t-78.5 53q-84 43 -173.5 51.5t-170 -12t-147 -65.5t-105.5 -109q-31 -49 -51.5 -117.5t-31 -146.5t-9 -160t13.5 -155.5t36.5 -136t61.5 -101.5q53 -55 133 -84t166 -24q49 2 85 16t70 32.5t69.5 37t82.5 28.5q29 -39 28 -72.5 t-18.5 -60.5t-45 -47t-50.5 -33q-84 -45 -180 -54t-190.5 8.5t-176 57t-135.5 93.5q-55 55 -89 133t-49 168t-13 187zM676 646q-8 -50 16 -79q37 12 75 41t67.5 71t45 91t3.5 100q-20 4 -39.5 8.5t-42.5 -1.5q-16 -4 -45 -42t-50.5 -88.5t-29.5 -100.5z" />
<glyph unicode="A" horiz-adv-x="864" d="M30 119q5 39 17 82t26.5 83t20.5 68q18 86 39 163t31 136q18 92 34.5 171t34 148.5t36 135t40.5 133.5q10 33 17.5 66.5t18.5 62.5t31.5 48.5t55.5 21.5h8q36 0 60 -16q28 -18 46.5 -47t30 -66t21.5 -70q37 -141 62.5 -287.5t60.5 -300.5q23 -100 51.5 -210.5 t63.5 -215.5q10 -33 23 -76q11 -37 11 -59v-6q-4 -25 -24.5 -42t-48 -25.5t-57 -5.5t-52.5 22q-25 18 -39 60t-25.5 90t-21.5 95t-24 80q-70 -2 -133.5 -9t-135.5 -7q-12 -31 -20 -76t-17.5 -91t-21.5 -85t-33 -57q-18 -16 -45 -23.5t-54.5 -4.5t-50 15.5t-32.5 34.5 q-7 17 -7 40q0 11 2 24zM342 504q20 6 46 8t52.5 3t51 3t43.5 10q-29 111 -53.5 225.5t-51.5 229.5q-23 -121 -44 -239.5t-44 -239.5z" />
<glyph unicode="B" horiz-adv-x="880" d="M84 260v82q0 113 2 233.5t5 239.5t6 231.5t3 206.5q0 39 1 75t9.5 64.5t29 46t59.5 21.5q23 2 40 -4t33 -14q39 5 79 5q25 0 50 -2q66 -5 123.5 -22.5t103.5 -49.5t74 -77q10 -16 23.5 -41.5t26 -53t21.5 -53.5t11 -44q4 -26 4 -49q0 -26 -5 -49q-9 -43 -28.5 -78 t-46 -64.5t-53.5 -58.5q39 -45 72 -76t55 -78q31 -67 36 -141q1 -20 2 -39q0 -55 -11 -107q-14 -72 -46 -136t-73 -105q-59 -57 -147 -99q-74 -35 -160 -35q-16 0 -33 1q-23 2 -59.5 5t-73.5 10t-67.5 19.5t-43.5 30.5q-10 18 -14 50t-6 72t-2 83zM325 442q3 -144 7 -274 q25 -6 49 -5q50 -1 90 25q59 38 92 105t38 149q1 13 1 25q0 67 -24 123q-28 66 -88 105q-41 26 -99 26q-28 0 -59 -6q-8 -99 -8 -208q0 -32 1 -65zM330 879h15q89 0 151 42q68 46 71 134q0 18 -4 44.5t-13 53.5t-20.5 51.5t-23.5 38.5q-29 37 -77 41t-99 8q-1 -27 -1 -55 q0 -71 4 -149q2 -42 2 -84q0 -65 -5 -125z" />
<glyph unicode="C" horiz-adv-x="831" d="M78 658q2 94 6 178q6 117 18.5 219t45 182t93 132.5t162.5 68.5q34 6 69 6q25 0 51 -3q63 -7 118 -32t96 -64.5t56 -95.5q6 -18 9 -42.5t2 -50.5t-9.5 -50.5t-24.5 -40.5q-25 -23 -70 -25h-6q-41 0 -67 25q-23 23 -29 56.5t-11 67.5t-18.5 60.5t-52.5 34.5q-21 5 -39 5 q-27 0 -48 -11q-34 -18 -55.5 -53t-32.5 -81t-15 -89q-6 -72 -6.5 -158t-0.5 -180q0 -86 -3 -176q-1 -30 -1 -58q0 -57 4 -108q2 -33 11.5 -72t24 -72.5t34 -57t43.5 -23.5q35 0 54.5 27.5t32.5 64.5t24.5 72.5t29.5 47.5q29 20 61 23.5t58.5 -5.5t46 -26.5t25.5 -38.5 q3 -16 3 -33q0 -24 -6 -48q-11 -42 -33.5 -80.5t-50.5 -69.5t-50 -47q-69 -49 -145 -57q-19 -2 -36 -1q-57 -1 -109 17q-69 24 -124 71.5t-82 104.5q-25 55 -37 134t-15 168q-2 53 -2 109q0 37 1 75z" />
<glyph unicode="D" horiz-adv-x="890" d="M78 1333q31 55 92 77q58 21 126 21h6q71 -1 142.5 -19.5t120.5 -41.5q61 -29 116.5 -80t90.5 -116q46 -84 66 -203q16 -95 16 -194q0 -25 -1 -51q-5 -126 -30.5 -248t-68.5 -212q-16 -37 -42 -72.5t-55.5 -66.5t-61.5 -55.5t-58 -36.5q-18 -8 -47 -17.5t-63 -16.5 t-67.5 -11t-64.5 -4q-23 0 -49.5 5t-52 14t-47 20.5t-31.5 27.5t-15.5 49t-7.5 73t-2 83v78q0 88 -3 158.5t-3 136.5v380t-6 322zM305 968q2 -134 8 -268.5t12.5 -269.5t6.5 -272q86 16 143 94t90 188q33 108 42 234q4 54 4 106q0 69 -7 135q-16 143 -84.5 235.5 t-204.5 106.5q-10 0 -6 -16q-4 -104 -5 -206q1 -33 1 -67z" />
<glyph unicode="E" horiz-adv-x="778" d="M84 1368q6 41 58 60q50 18 120 22q31 2 64 2q40 0 82 -3q76 -5 137 -9q39 -2 76.5 -7.5t69.5 -16.5t51.5 -29.5t21.5 -47.5q2 -31 -10.5 -47t-34 -24t-49 -10.5t-58.5 -4.5q-33 -2 -67.5 -2t-70 2t-75 2t-82.5 -2q-1 -62 -1 -121.5t1 -117.5q2 -116 7 -234q20 -2 42 -2 q36 0 78 6q70 10 132 11h15q53 1 91 -13q43 -16 43 -69q0 -43 -42 -61q-41 -19 -103 -25q-53 -5 -111 -5h-19h-17q-58 0 -103 -6q-6 -59 -6 -121q0 -50 4 -103q5 -67 5 -135q0 -51 -3 -101q20 4 59 12t85 14t94 10q17 1 33 1q29 -1 55 -5q40 -6 64.5 -23.5t27.5 -49.5v-7 q0 -36 -20 -52q-22 -18 -59.5 -23.5t-84.5 -5.5t-99 -4q-35 -4 -88 -16.5t-107 -19.5q-32 -4 -61 -4q-21 0 -41 2q-48 5 -69 38q-10 14 -14.5 57t-6.5 95t-3 103.5t-1 79.5q0 104 2 221q1 39 1 78q0 78 -3 158q0 61 4 121.5t8.5 119t5.5 112.5v14q0 47 -6 90q-4 29 -15 49 t-7 47z" />
<glyph unicode="F" horiz-adv-x="778" d="M73 161q1 40 5 82t4 79q4 156 11 308t7 312q0 82 8 159q6 52 6 98q0 22 -1 42q-4 23 -12.5 43.5t-6.5 32.5q6 47 52.5 65.5t109.5 22.5q32 2 65.5 2t69.5 -2q48 -3 90 -3q21 0 41 1q35 2 76 3h10q35 0 66 -6q35 -7 57.5 -24.5t22.5 -52.5q0 -47 -48 -65q-48 -17 -116 -20 q-34 -2 -69 -2t-71 2q-24 1 -46 1q-44 0 -78 -4q-9 -65 -9 -131q0 -42 4 -85q6 -76 6 -153q0 -34 -1 -69q45 2 103 6q29 2 57 2q26 0 52 -2q52 -4 88 -21.5t36 -60.5t-34 -59.5t-83 -20.5q-28 -2 -59 -2q-24 0 -48 1q-34 2 -65 2q-21 0 -41 -1q-16 -92 -17.5 -188.5 t-5.5 -194.5q-2 -25 0 -59.5t2 -69.5t-6 -64.5t-20 -48.5q-14 -18 -41 -26t-55.5 -7t-55.5 11t-39 33q-14 25 -18 59q-3 28 -3 59v16z" />
<glyph unicode="G" horiz-adv-x="874" d="M90 684q-2 46 -2 93q0 58 3 117q5 107 20.5 202.5t48.5 163.5q16 35 46 64.5t64.5 52t72.5 36.5t73 19q36 4 69 4q94 0 165 -33q98 -45 132 -139q25 -66 29 -134v-11q0 -60 -39 -103q-14 -14 -35.5 -21.5t-44 -7.5t-43 5t-33.5 18q-23 20 -26.5 59t-7.5 78t-17.5 71.5 t-54.5 41.5q-15 3 -28 3q-38 0 -63 -22q-34 -29 -52.5 -79t-25.5 -111.5t-9 -112.5q-5 -84 -5 -180v-32q1 -114 11 -216q4 -51 10 -101.5t16.5 -95.5t26.5 -80.5t41 -60.5q59 8 93 44t50.5 88t22.5 115.5t12 127.5q-29 -12 -68 -19q-21 -3 -42 -3q-15 0 -30 2 q-34 5 -58.5 21.5t-26.5 51.5q0 27 18.5 46.5t46 31.5t58.5 19.5t55 9.5q31 3 65 3h17q43 -1 81 -10.5t65.5 -28t39.5 -48.5q15 -45 15 -106v-12q-2 -69 -15.5 -135.5t-32 -123t-32.5 -80.5q-35 -57 -104.5 -101.5t-149.5 -61.5q-42 -9 -85 -9q-37 0 -74 7q-79 15 -134 77 q-25 27 -44 74t-34.5 103t-26 118.5t-14.5 120.5q-6 86 -10 190z" />
<glyph unicode="H" horiz-adv-x="907" d="M84 1232q-1 19 -1 37q0 27 2 52q3 41 15 63q12 20 39 30.5t55.5 11.5t56.5 -8t42 -29q12 -18 18 -49t7 -69v-39v-41q-1 -42 -1 -79q0 -78 3.5 -154.5t9.5 -134.5q56 -1 128 15q52 11 109 11q22 0 45 -1q-2 42 -2 82q0 50 3 99q5 87 5 185q0 52 -6 102q-2 17 -2 31 q0 29 8 48q8 20 36 33.5t59.5 16.5t62.5 -7.5t47 -36.5q12 -20 17 -59q4 -40 6 -84q1 -30 1 -59v-29.5v-27.5q0 -27 1 -48q1 -71 1 -134v-62q-1 -90 -4 -174.5t-6 -173.5t-3 -198q0 -41 4 -89t7 -94q2 -28 2 -52q0 -16 -1 -31q-2 -37 -12 -57q-12 -23 -41 -36t-61 -15.5 t-62.5 9t-46.5 42.5q-12 23 -17.5 52.5t-6.5 62t-1 66.5v64q-2 61 -2 117q0 42 1 82q3 93 7 189q-26 4 -52 4h-18q-34 -2 -68 -7.5t-68.5 -10.5t-69.5 -5q-1 -51 -1 -101q0 -102 5 -204q3 -61 3 -121q0 -90 -7 -178q-12 -23 -40 -35t-58.5 -14t-60.5 7t-46 32 q-14 18 -19.5 61t-6.5 92q0 24 -1 48q0 26 1 50q1 48 1 78q-7 160 -7 310v37q1 167 1 348q0 35 -4 83t-6 96z" />
<glyph unicode="I" horiz-adv-x="444" d="M82 289v90q0 209 1 436t11 459q2 39 5 70.5t12.5 56t30 41t57.5 20.5q15 2 29 2q38 0 58 -16q28 -22 40 -67q10 -40 9 -95v-10q-1 -62 -1 -131q0 -125 1 -236.5t2 -222.5t2 -223.5t1 -237.5v-45.5t-2 -57.5t-7 -55.5t-16 -37.5q-16 -20 -44.5 -27.5t-59.5 -4.5 t-58.5 14.5t-39.5 29.5q-14 23 -20.5 63.5t-8.5 88t-2 96.5z" />
<glyph unicode="J" horiz-adv-x="751" d="M18 267q2 40 16.5 72t45.5 44q38 16 64 16q19 0 32 -9q29 -19 43 -57t24.5 -84t37.5 -73q23 2 44 27.5t31 48.5q43 84 57.5 202.5t17.5 251.5q1 67 1 135.5t-1 137.5q-1 46 -1 91q0 90 4 175q-16 1 -33 1q-35 0 -75 -3q-36 -2 -69 -2q-25 0 -49 1q-56 3 -95 22.5 t-39 72.5q0 44 39 68q41 25 90 29q51 4 118.5 4t132 -8.5t114.5 -24.5t67 -43q31 -51 40 -112q8 -56 8 -118v-14q-1 -69 -7 -146t-6 -159q0 -106 -1 -210.5t-18 -196.5q-10 -59 -29.5 -120t-46 -115t-59.5 -96t-72 -65q-53 -31 -114 -35q-12 -1 -24 -1q-49 0 -94 14 q-56 16 -102.5 51t-66.5 78q-12 29 -19 69q-6 32 -6 64v17z" />
<glyph unicode="K" horiz-adv-x="880" d="M76 194q2 48 5 97t3 92q0 174 3 344t3 356q0 39 -1 87v33q0 32 1 62q2 46 8 85t21 57q14 18 40.5 25.5t53.5 6.5t50.5 -11.5t33.5 -26.5q23 -35 26 -89q1 -25 1 -52q0 -31 -2 -63q-4 -61 -7 -119q-1 -20 -1 -37q0 -36 5 -64q35 39 74 104.5t80 130.5q18 31 36.5 68 t38 69.5t42 58.5t53.5 34q18 5 37 5q24 -1 50 -9q46 -16 54 -49q4 -18 -2 -37t-15 -39.5t-21.5 -40t-20.5 -37.5q-49 -115 -108.5 -210t-114.5 -183q68 -137 122 -296t113 -310q8 -18 22.5 -40t29 -45.5t23.5 -48t7 -49.5t-21.5 -42t-47 -25.5t-58 -7t-55.5 15.5 q-16 8 -32.5 29.5t-31 46t-26.5 51t-21 45.5q-25 59 -46 123.5t-40.5 127t-40 122t-45.5 108.5q-16 -14 -23 -36.5t-8 -48t1 -55.5t2 -61q0 -113 -7 -223q0 -27 1.5 -55.5t1.5 -55t-4.5 -50t-16.5 -37.5q-16 -23 -48 -33q-25 -8 -49 -8q-6 0 -14 1q-32 3 -61 17t-39 39 t-13 65q-2 24 -2 52q0 17 1 36z" />
<glyph unicode="L" horiz-adv-x="735" d="M87 278q1 58 1 113q0 102 2 188.5t4 167t5 162.5t7 181q1 26 1 54q0 26 -1 56v28q0 44 4 84q6 52 26 90t67 44q12 1 23 1q48 0 74 -28q30 -35 41 -93q9 -49 10 -105q0 -11 -1 -21q-2 -68 -2 -123q0 -106 -5 -214.5t-9 -220.5t-6 -228q-1 -39 -1 -79q0 -79 3 -161 q46 2 112 10q51 7 100 7q16 -1 30 -1q64 -2 109.5 -20t49.5 -68q2 -39 -12 -59t-42 -28.5t-65 -9.5t-77 -1q-63 0 -124 -9t-114 -15q-22 -2 -43 -2q-28 0 -54 4q-44 8 -75 41q-16 18 -24.5 58t-11.5 90q-2 38 -2 79v28z" />
<glyph unicode="M" horiz-adv-x="1173" d="M74 1271q-1 13 -1 26q0 25 3 49q4 36 20 59q12 18 38 26.5t53.5 8.5t51 -7.5t35.5 -21.5q18 -20 16 -41.5t9 -52.5q10 -37 30.5 -74t35.5 -76q43 -121 93 -225t103 -215q53 76 98.5 170t92.5 193q16 35 35.5 90t46 108t58.5 94t73 48q21 3 37 3q20 1 32 -5 q20 -10 25.5 -33t1.5 -52.5t-6 -62.5q-1 -23 -1 -47q0 -65 8 -137q11 -98 17 -207q4 -98 11.5 -211t11.5 -217q2 -39 7 -101q5 -64 6 -128q0 -13 1 -25q0 -49 -4 -95q-4 -56 -22 -81q-14 -20 -42 -28.5t-57.5 -8.5t-57.5 10t-40 27q-19 28 -19 68v17q3 36 4 72q0 16 -1 33 q-6 129 -12.5 273.5t-6.5 285.5q-41 -59 -67.5 -126.5t-63.5 -145.5q-14 -31 -29.5 -62.5t-37.5 -53.5q-21 -22 -54 -30q-10 -2 -22 -3q-26 0 -60 12q-41 14 -66.5 56t-46 93t-38 103.5t-39.5 87.5q-9 -51 -9 -112q0 -20 1 -41q4 -85 10 -172t6 -169t-18 -143 q-10 -29 -40 -43.5t-65 -15.5h-5q-32 -1 -62 11q-32 12 -43 35q-8 14 -11.5 45t-4.5 68t-1 76t-2 67q-4 98 -4 204t1 211.5t1 205.5t-4 188q0 27 -4 66t-6 79z" />
<glyph unicode="N" horiz-adv-x="954" d="M60 143q3 43 8.5 86t5.5 74q2 183 5 365q1 50 1 99q0 132 -6 263q-4 68 -8 144q-1 23 -2 45q0 51 8 95q10 64 44 100q23 24 62 24q20 0 43 -6q33 -8 61.5 -44t52 -82t43 -93.5t34.5 -77.5q20 -45 34.5 -89.5t32.5 -82.5q41 -78 80 -153t76 -161q-5 79 -5 165q0 54 2 110 q5 146 15 290q2 27 2 55q0 21 -1 43q-1 9 -1 18q0 39 12 65q10 25 37 38t57.5 15t59.5 -9.5t43 -31.5q12 -18 17.5 -53t5.5 -77t-2.5 -85t-2.5 -76q-2 -102 -6 -220t-6 -240q-1 -81 -1 -160v-80q1 -119 7 -223q2 -18 6.5 -40t8.5 -45.5t4 -45t-6 -35.5q-12 -31 -43 -43 q-26 -10 -56 -9h-11q-36 2 -70.5 16.5t-53.5 35.5q-16 16 -30.5 53t-30.5 70q-39 78 -72 163.5t-65.5 173.5t-66.5 173t-75 161q7 -70 7 -142q0 -29 -1 -59q-4 -102 -6 -231q0 -47 1 -103v-36q0 -36 -1 -71q-2 -52 -10 -96t-29 -69q-14 -18 -39.5 -27.5t-53.5 -9.5 t-53.5 7.5t-39.5 23.5q-16 18 -20 55q-3 22 -3 47q0 16 1 33z" />
<glyph unicode="O" horiz-adv-x="880" d="M98 936q-1 20 -1 39q-1 71 11 138q14 85 50.5 152.5t96.5 112t148 54.5q28 3 53 2q91 0 154 -33q80 -43 125 -126t63.5 -194.5t24.5 -234.5q4 -87 4 -175q0 -44 -1 -87q-3 -131 -27.5 -245t-77.5 -200t-148 -127q-54 -24 -110 -24h-15q-64 4 -120 27.5t-101 66.5t-69 96 q-29 63 -39 142t-15 161q-1 24 -1 47q0 60 7.5 116t7.5 116q0 23 -1 47q-2 33 -9.5 65.5t-9.5 63.5zM307 626q4 -96 15 -180q4 -39 12 -86t22.5 -88t33 -68.5t44.5 -29.5q23 -2 51.5 21.5t42.5 50.5q43 72 57.5 186.5t14.5 263.5q0 43 -2 104.5t-8 126t-18.5 127t-33 108.5 t-52.5 68q-19 14 -43 14q-15 0 -31 -5q-35 -10 -51.5 -45t-22.5 -81t-7 -98t-3 -95q-2 -29 -8.5 -54.5t-10.5 -52.5q-4 -54 -4 -110q0 -38 2 -77z" />
<glyph unicode="P" horiz-adv-x="843" d="M88 1261.5q0 34.5 3 63.5t9 45t22.5 28.5t36 20.5t38 12.5t30.5 6.5q42 3 82 4q161 0 275 -52q144 -64 202 -204q20 -49 29.5 -106.5t9.5 -116t-10 -112.5t-29 -97q-23 -53 -64.5 -101.5t-97.5 -85.5t-128 -59q-65 -20 -140 -19h-14q-7 -27 -7 -61q0 -22 3 -48 q8 -64 18 -130q11 -74 10 -132q0 -58 -24 -95q-10 -18 -33.5 -28.5t-51.5 -12.5t-53.5 3t-41.5 19q-18 14 -27.5 47t-14.5 76t-6 90t-1 90q-2 123 -4.5 220.5t-3.5 188.5t-4 186t-7 212q-2 35 -4 74t-2 73.5zM319 1284q3 -156 15 -312q9 -115 9 -226q0 -39 -1 -76 q15 -2 29 -2q63 0 109 37q56 45 82 117q27 70 27 153v6q-1 86 -31 157.5t-89 114.5q-46 34 -112 34q-18 0 -38 -3z" />
<glyph unicode="Q" horiz-adv-x="880" d="M80 713q0 63 11 130.5t15 133.5q4 98 8.5 166.5t37.5 126.5q33 59 100 105t141 55q23 2 45 2q32 0 64 -4q53 -9 97 -29.5t78 -49t52 -63.5q12 -23 19.5 -53.5t12.5 -65t8 -70.5t5 -65q8 -111 9 -238v-24q0 -115 -9 -226q-10 -122 -32.5 -227.5t-61.5 -173.5 q0 -29 17.5 -48t39 -36.5t39 -34t15.5 -40.5q0 -18 -14.5 -29.5t-35 -16t-43 -3t-41.5 5.5q-47 10 -74.5 40.5t-56.5 51.5q-49 -21 -102 -21h-10q-58 2 -111 20.5t-97 52.5t-67 75q-20 39 -32.5 107.5t-18.5 146.5t-7 157.5t-1 141.5zM272 723q0 -61 3.5 -151.5t14.5 -175.5 t33.5 -148.5t63.5 -71.5q23 -4 36 1t32 11q-8 29 -24.5 62t-26 62.5t-4 54t41.5 36.5q29 10 53.5 3t47.5 -3q8 66 13 143t7 156q1 54 1 107v53q-1 80 -5 154q-2 41 -5 88t-16.5 86t-41.5 60q-19 14 -46 14q-16 0 -34 -4q-43 -10 -60.5 -41t-21.5 -72t-4 -89t-8 -91 q-6 -29 -22.5 -47.5t-20.5 -36.5q-2 -8 -3.5 -28.5t-2.5 -45.5t-1 -48.5v-37.5z" />
<glyph unicode="R" horiz-adv-x="880" d="M108 1307q4 43 28 70.5t81 35.5q59 7 115 13q21 2 45 3q39 0 86 -6q70 -6 133 -32.5t111.5 -67.5t80 -94t41.5 -113q6 -43 6 -82q0 -38 -6 -74q-12 -70 -44.5 -128t-80 -104t-102.5 -83q25 -53 44.5 -115.5t39 -126t41 -124t51.5 -109.5q8 -14 22.5 -26.5t29 -26 t24.5 -27.5t10 -31q0 -23 -12 -39t-31.5 -26t-44 -14.5t-45.5 -2.5q-74 8 -121 65.5t-78.5 135.5t-53 164t-46.5 154l-9 31.5t-12.5 34t-18.5 26.5t-30 8q-20 -52 -20 -108v-25q4 -51 5 -103q0 -19 -1 -38q-1 -22 -1 -46v-25q0 -19 0.5 -38t-0.5 -37q-1 -37 -4 -70.5 t-13 -58.5q-14 -35 -48 -48q-22 -8 -45 -8q-12 0 -25 2q-36 7 -65.5 33.5t-31.5 73.5q-5 67 -5 142q0 38 1 77q4 119 10 246t9 260q1 36 1 72q0 96 -6 188q-3 67 -11 123q-5 35 -5 65q-1 18 1 34zM334 1257q0 -113 9 -243q5 -78 5 -157q0 -53 -2 -107h14q63 0 115 32 q57 36 92 97t43 137q2 17 1 34q0 60 -21 119q-20 20 -45 40t-55 33q-29 12 -65 18q-14 2 -28 3q-24 0 -51 -6h-12z" />
<glyph unicode="S" horiz-adv-x="841" d="M84 267q-1 14 -1 28q0 31 6 59q9 41 32.5 70t68.5 29q41 0 63.5 -18.5t35 -48.5t17.5 -65.5t13.5 -67.5t22.5 -54.5t45 -26.5q25 -4 51.5 16.5t50 51t41 64.5t21.5 58q4 26 4 52q0 24 -4 50q-8 52 -27.5 96t-46 79t-57.5 51q-29 16 -66 24.5t-67 24.5q-27 14 -56.5 36 t-55 47.5t-46 54t-29.5 59.5q-10 33 -11 73v16q0 31 3 63q4 40 12.5 77t18.5 64q33 84 93.5 132t154.5 58q24 2 46 2q72 1 136 -23q84 -32 127 -85q20 -25 38 -77q20 -55 20 -108q0 -48 -22 -82q-20 -30 -70 -31q-8 0 -17 1q-43 4 -62.5 45t-35 87t-39.5 81q-20 29 -60 29 q-8 0 -16 -1q-41 -6 -58.5 -32.5t-25.5 -63.5q-8 -29 -16 -75q-3 -20 -3 -40q0 -27 6 -53q8 -47 42 -74.5t79 -49t92.5 -40t83.5 -45.5q29 -20 57.5 -48.5t45.5 -57.5q53 -98 59 -202q1 -18 1 -35q-1 -85 -25 -161q-30 -92 -90 -159.5t-136 -93.5q-63 -23 -129.5 -23 t-125 20.5t-104.5 61.5t-69 102q-12 33 -16 79z" />
<glyph unicode="T" horiz-adv-x="696" d="M-37 1343q0 20 11.5 37t31 27t43 17.5t45.5 9.5q31 2 72 2t87 -2t96 -5.5t97 -7.5q43 -4 89.5 -8t86.5 -14t65.5 -27.5t27.5 -44.5q2 -29 -18.5 -50.5t-56.5 -34.5t-83 -16q-13 -1 -26 -1q-35 0 -72 6q-3 -78 -3 -166v-45q1 -113 3 -232.5t3 -244.5v-50q0 -99 -3 -194 v-68t-2 -84t-8.5 -78.5t-20.5 -50.5q-16 -18 -45 -23t-58.5 -2t-54 13t-32.5 25q-12 20 -15.5 58t-3.5 82t3 88t3 77q0 242 3 466t3 447q-37 6 -83 8.5t-87 8.5t-68.5 22.5t-29.5 54.5z" />
<glyph unicode="U" horiz-adv-x="886" d="M71 624v44q0 110 4 223q5 135 9 239q2 51 2 95.5t4 79t15.5 60.5t37.5 38q35 17 62 17q16 0 29 -6q34 -16 50.5 -56.5t19.5 -97t3 -111.5q-2 -94 -6 -201.5t-5 -215.5v-30q0 -92 5 -178q6 -100 25 -182q16 -66 46 -112q29 -44 75 -44h4q27 2 46 23.5t33.5 53.5t24.5 71 t16 76q29 143 30 305t1 338q0 61 -1 123v16q0 54 6 99q7 52 31 87t73 41q17 3 31 3q38 0 58 -20q26 -28 34 -77q4 -27 3 -58q-1 -27 -3 -57q-6 -66 -5 -133q0 -111 -1 -230.5t-8 -234t-21.5 -214t-40.5 -169.5q-14 -39 -41 -76.5t-61.5 -68.5t-76.5 -51.5t-85 -26.5 q-22 -3 -44 -3q-36 1 -72 9q-56 14 -103.5 41t-84 65t-57.5 81q-35 66 -48 179.5t-14 245.5z" />
<glyph unicode="V" horiz-adv-x="862" d="M2 1360q4 18 22.5 34.5t44 24.5t53.5 6t50 -16q18 -12 30.5 -36.5t21.5 -54.5t15.5 -60.5t12.5 -55.5q43 -193 84 -360.5t82 -337.5q29 164 77 335t89 357q6 31 11 62.5t12 60.5t19.5 51.5t30.5 32.5q20 12 46 12t49.5 -6t40 -17.5t22.5 -25.5q6 -12 5 -33.5t-5 -46 t-9 -50.5t-9 -46q-20 -115 -51 -250t-58 -248q-18 -72 -34.5 -163t-32.5 -179q-6 -29 -10.5 -78t-11.5 -100t-18.5 -95t-27.5 -65q-16 -18 -48 -26q-25 -7 -50 -7q-7 1 -15 1q-34 2 -66 11t-48 21q-25 18 -40.5 58.5t-25.5 87.5t-19.5 95t-19.5 85q-10 35 -16 71.5t-15 75.5 q-31 166 -77.5 345.5t-85.5 377.5q-9 43 -21 84q-7 24 -7 43q0 14 3 25z" />
<glyph unicode="W" horiz-adv-x="1251" d="M33 1342v8q0 33 14 53q12 18 37 26.5t52.5 7.5t52 -11.5t36.5 -28.5q8 -12 15.5 -36t14.5 -50.5t12 -53t12 -47.5q18 -66 29 -145.5t19.5 -162.5t14.5 -166t14 -152q25 76 44.5 159.5t38 168.5t39 171t46.5 170q8 27 23.5 62t37 59.5t52.5 32.5q8 2 16 2q26 0 58 -18 q18 -10 28.5 -33t14.5 -49.5t5 -55t5 -53.5q4 -39 18.5 -80t22.5 -88q12 -61 24.5 -129.5t23.5 -138.5t22.5 -137.5t19.5 -126.5q12 80 25.5 166t25.5 174t24.5 176t26.5 172q4 23 8.5 53.5t9.5 61t12 57t17 43.5q14 23 42 32t58 6t53.5 -16.5t33.5 -33.5q8 -21 8 -55v-14 q-2 -44 -10 -93t-18.5 -97.5t-16.5 -80.5q-29 -176 -45 -345t-45 -344q-6 -35 -10 -82t-10.5 -93t-15.5 -86t-24 -62q-14 -23 -48 -32q-31 -8 -67 -8h-8q-40 1 -76 12.5t-50 27.5q-23 25 -28 78t-15 102q-29 135 -61 266.5t-46 276.5q-45 -147 -76.5 -296t-79.5 -308 q-10 -33 -24 -75t-38 -74q-23 -32 -59 -44q-11 -4 -24 -4q-28 0 -65 19q-31 14 -50.5 64t-32 113.5t-20.5 127t-16 106.5q-29 160 -39 336t-39 352q-6 39 -18.5 86t-20.5 93t-10 84z" />
<glyph unicode="X" horiz-adv-x="847" d="M18 70q-4 31 6.5 61.5t27 62t34.5 64.5t29 64q10 35 18 67.5t23 63.5q14 31 25.5 53t23.5 44.5t24.5 48.5t28.5 63q10 20 27.5 45.5t19.5 42.5v5q-1 31 -21 69q-22 42 -38 87t-31.5 82t-30 74t-29 77t-28.5 89q-6 18 -16.5 38.5t-18.5 42t-11 44t3 47.5q4 16 20.5 29.5 t38 19.5t46 5t44.5 -11q20 -12 38 -34.5t32 -50.5t24.5 -57.5t18.5 -54.5q23 -59 44 -114.5t46 -106.5q27 45 48.5 94.5t47.5 102.5q12 27 22.5 55.5t22 55t22.5 49t28 36.5q20 18 51 26.5t61.5 3.5t55 -21.5t28.5 -42.5q2 -16 -4 -38t-15 -45.5t-20.5 -48t-19.5 -43.5 q-20 -43 -38.5 -80.5t-37 -73.5t-38 -73t-42.5 -82q-8 -16 -19 -38.5t-21.5 -45t-17.5 -43t-7 -35.5v-6q1 -38 23 -80q24 -45 36 -86q31 -92 53.5 -167.5t61.5 -172.5q15 -43 39 -89q20 -39 21 -69q0 -5 -1 -10q-4 -23 -22.5 -39t-44 -25t-55 -8t-56.5 13q-41 20 -67.5 75.5 t-47 122t-38 132t-39.5 106.5q-29 -39 -50.5 -97t-44.5 -118q-12 -29 -23.5 -60.5t-22.5 -60t-24.5 -52t-31.5 -36.5q-23 -16 -54.5 -19t-60 4t-50 25.5t-26.5 43.5z" />
<glyph unicode="Y" horiz-adv-x="808" d="M20 1353v16q0 28 12 49q17 26 72 32q6 1 13 1q39 0 69 -23q35 -25 60.5 -68t46 -97.5t40 -107.5t38 -98t43.5 -68q33 72 70.5 160t74.5 168q10 23 24.5 55.5t30.5 46.5q23 18 56 25q16 3 33 3q16 0 31 -3q32 -6 56.5 -23.5t28.5 -44.5q4 -23 -2 -47t-17.5 -50 t-24.5 -50.5t-21 -44.5q-41 -92 -75 -179t-77 -186q-23 -49 -47.5 -92t-32.5 -82q-10 -50 -10 -113q0 -16 1 -32q3 -82 3 -158q0 -39 1 -85q1 -23 1 -45t-1 -44q-1 -43 -6 -78t-17 -51q-14 -16 -42 -25.5t-59 -9.5t-59.5 10.5t-40.5 30.5q-10 14 -12 37.5t-2 53.5t2 62.5 t0 63.5q-2 55 -5 116q-1 44 -1 87v33q1 59 6.5 112.5t17.5 94.5q-49 127 -108.5 241.5t-114.5 249.5q-14 35 -32.5 77t-23.5 80z" />
<glyph unicode="Z" horiz-adv-x="698" d="M16 1329q2 29 34 46.5t75 26.5t91 13t87 8q44 3 95 4q14 0 26 -1q66 -1 122 -12t95 -37.5t45 -71.5q1 -5 1 -10q-1 -23 -15 -58q-18 -43 -27 -80q-80 -260 -167 -493.5t-187 -475.5q18 -2 38 -2q33 0 73 4q42 4 82 5q20 1 42 -1q60 -4 102 -23t46 -71v-12q0 -40 -24 -56 q-28 -20 -72 -23q-14 -1 -30 -1q-30 0 -64 4q-50 6 -91 6q-43 0 -101.5 -6t-113.5 -6t-97 14.5t-52 57.5q-6 23 2 50.5t20 57t26.5 58t22.5 51.5q92 240 173 469t169 465q-20 5 -49 5q-11 0 -21 -1q-42 -2 -91.5 -5t-98.5 -4h-10q-43 0 -78 8q-40 10 -62 32q-18 18 -17 48 q0 8 1 17z" />
<glyph unicode="[" horiz-adv-x="481" d="M51 148.5q0 93.5 5 186.5t11.5 187t10.5 197q6 125 4 244.5t2 214.5q2 63 0 115.5t18 80.5q14 20 42 29.5t62 12.5t69.5 3t64.5 2q92 4 125 -13t35 -65q0 -35 -16.5 -53t-45 -27.5t-64.5 -12.5t-75 -7q-4 -324 -8 -636t-10 -640q43 -10 79.5 -13t65.5 -11.5t46 -25.5 t17 -52q0 -41 -22.5 -59.5t-57 -23.5t-74.5 -1t-73 8q-59 6 -96 11t-59.5 20.5t-33 46.5t-14.5 88q-8 100 -8 193.5z" />
<glyph unicode="\" horiz-adv-x="512" d="M39 1364q0 47 17.5 79t64.5 34q37 0 59.5 -20.5t37.5 -53.5t23.5 -74t18.5 -80q18 -80 38.5 -182t42 -216t42 -233.5t41 -233.5t38.5 -216t32 -180q-6 -16 -28 -28.5t-48.5 -17.5t-53 -2t-45.5 19q-16 12 -26 39t-18.5 57.5t-13.5 63.5t-11 61q-43 180 -71.5 365.5 t-63.5 376.5q-10 53 -22.5 115.5t-24.5 129.5q-8 43 -18.5 96.5t-10.5 100.5z" />
<glyph unicode="]" horiz-adv-x="481" d="M14 -145q0 27 15.5 45t40 29.5t55 16.5t63.5 5q6 326 18.5 648.5t22.5 653.5q-31 6 -63.5 9.5t-59 12.5t-44 25.5t-17.5 49.5q0 45 54.5 65.5t124 20.5t135 -18.5t87.5 -49.5q0 -152 -1 -321.5t-5 -344t-11 -346.5t-19 -327q-4 -51 -2 -103.5t-9 -81.5 q-8 -20 -39.5 -36.5t-74.5 -26.5t-91.5 -12t-88 6t-65.5 27.5t-26 52.5z" />
<glyph unicode="^" horiz-adv-x="829" d="M49 784q2 23 11.5 46.5t22.5 48t23 47.5q35 84 66 152.5t70 142.5q20 37 33.5 76.5t35.5 68.5q16 25 43 37t55.5 15t53 -3t39.5 -20q4 -4 12 -23.5t19.5 -46.5t21.5 -54.5t16 -45.5q59 -152 152 -312q6 -10 20.5 -26.5t28.5 -36t23.5 -42t7.5 -46.5q-2 -25 -21.5 -40 t-47 -22.5t-57.5 -4.5t-50 16q-16 8 -32.5 29.5t-33 47t-32 53t-27.5 50.5q-29 53 -52.5 104.5t-43.5 106.5q-39 -53 -69 -113.5t-67 -126.5q-8 -14 -30.5 -49t-52 -62.5t-63.5 -36.5t-63 29q-14 18 -12 41z" />
<glyph unicode="_" horiz-adv-x="1024" d="M-39 -227q-4 47 41 69.5t110.5 31.5t137.5 9t121 2q37 2 86 4t103 3.5t108.5 1.5t99.5 -3q35 -2 85 -5t95 -13t78 -29.5t33 -52.5q2 -53 -35 -70.5t-89 -18.5t-110.5 8t-97.5 9h-116.5t-136.5 -2t-138.5 -5t-120.5 -5q-39 -2 -83 -5t-81 1t-62.5 19.5t-27.5 50.5z" />
<glyph unicode="`" horiz-adv-x="759" d="M220 1421q-5 35 10.5 62t68.5 37q45 8 73.5 -5.5t49 -39t37 -60.5t39.5 -69q18 -29 44.5 -69t40 -77t2 -66.5t-66.5 -37.5q-47 -6 -83 9t-63.5 44t-49 64.5t-41.5 68.5q-18 31 -37 67.5t-24 71.5z" />
<glyph unicode="a" />
<glyph unicode="b" />
<glyph unicode="c" />
<glyph unicode="d" />
<glyph unicode="e" />
<glyph unicode="f" />
<glyph unicode="g" />
<glyph unicode="h" />
<glyph unicode="i" />
<glyph unicode="j" />
<glyph unicode="k" />
<glyph unicode="l" />
<glyph unicode="m" />
<glyph unicode="n" />
<glyph unicode="o" />
<glyph unicode="p" />
<glyph unicode="q" />
<glyph unicode="r" />
<glyph unicode="s" />
<glyph unicode="t" />
<glyph unicode="u" />
<glyph unicode="v" />
<glyph unicode="w" />
<glyph unicode="x" />
<glyph unicode="y" />
<glyph unicode="z" />
<glyph unicode="{" horiz-adv-x="501" d="M14 610q0 18 8.5 30.5t22.5 22t30.5 16.5t30.5 17q37 27 56.5 59.5t29 75.5t11.5 95.5t6 117.5q2 63 17.5 124t43 110t69.5 81t99 38q61 6 99 -14.5t46.5 -48t-16 -52.5t-86.5 -27q-51 -31 -66.5 -75.5t-14.5 -98t11.5 -112t10.5 -115.5q0 -43 -14.5 -78t-34 -63.5 t-44 -53t-44.5 -49.5q51 -57 81.5 -139t39.5 -186q2 -68 -0.5 -137.5t20.5 -129.5q23 -8 44.5 -11t39.5 -8t30.5 -15.5t14.5 -34.5q4 -51 -35 -70.5t-92 -17.5t-104.5 19.5t-71.5 39.5q-35 41 -44 105.5t-9 137.5v144.5t-17 124.5q-10 31 -26.5 50.5t-32.5 52.5 q-12 4 -29.5 8t-35 12t-31 21.5t-13.5 33.5z" />
<glyph unicode="|" horiz-adv-x="481" d="M118 -1q1 54 1 93q0 84 2 178.5t5 190.5t6 189t3 177q0 104 3 189.5t9 177.5q2 29 7.5 70t16.5 80.5t28.5 71.5t46.5 38q10 2 40.5 2t51.5 -26q12 -16 16 -45t3 -59t-4 -55.5t-3 -37.5q-8 -184 -1 -369.5t7 -382.5q0 -88 -7 -174t-11 -190q-2 -43 0 -98.5t2 -107.5 t-2 -96t-10 -69q-8 -18 -33 -28.5t-53.5 -11.5t-57 7t-43.5 27q-12 14 -17 57t-6 95.5t0 106.5z" />
<glyph unicode="}" horiz-adv-x="501" d="M-23 -145q0 29 15.5 43t40 19t55.5 4t62 -5q31 29 39 69t6 86t-9.5 94t-9.5 93q-2 92 21.5 167t64.5 128q-33 35 -44 91t-13 124t2 138.5t0 135t-21.5 114.5t-58.5 77q-55 -10 -89 9.5t-42 49t11.5 57t68.5 33.5q70 8 98.5 0t52.5 -18q66 -29 104 -63.5t57.5 -86 t25.5 -121t8 -165.5q0 -33 -3 -69t-4 -70.5t3 -66.5t20 -56q8 -14 25.5 -24.5t33 -21t27 -23.5t11.5 -34q0 -20 -9.5 -32.5t-24 -20.5t-31.5 -15.5t-32 -15.5q-29 -43 -35 -99t-4 -119.5t7.5 -130.5t0 -128t-26 -112.5t-67.5 -86.5q-33 -25 -89 -37t-111.5 -9t-95.5 26.5 t-40 71.5z" />
<glyph unicode="~" horiz-adv-x="829" d="M25 526q-4 57 32.5 105.5t93 79t123 41t123.5 -3.5q37 -10 70 -28t62.5 -38t55 -42t48.5 -38q29 16 60.5 29.5t70.5 21.5q47 -37 48 -80t-29.5 -77.5t-83 -55t-111.5 -14.5q-29 4 -57.5 13.5t-51.5 23.5t-43 35.5t-41.5 43t-45 37t-52.5 17.5t-50.5 -12.5t-41 -35 t-37.5 -40t-38.5 -27.5t-46.5 1.5t-58 43.5z" />
<glyph unicode="&#xa1;" />
<glyph unicode="&#xa2;" />
<glyph unicode="&#xa3;" />
<glyph unicode="&#xa4;" />
<glyph unicode="&#xa5;" />
<glyph unicode="&#xa6;" />
<glyph unicode="&#xa7;" />
<glyph unicode="&#xa8;" />
<glyph unicode="&#xa9;" horiz-adv-x="1439" d="M52.5 804q13.5 118 60.5 232q12 27 35.5 56.5t44.5 58.5q23 31 43 58.5t43 50.5q84 78 182 107.5t237 29.5q135 0 238.5 -39t176.5 -107.5t119 -165t68 -211.5q29 -147 6.5 -271t-63.5 -226q-59 -150 -166.5 -248.5t-275.5 -114.5q-39 0 -77 -1t-77 1q-121 4 -220 50.5 t-174 122t-125 175t-69.5 212t-6 230.5zM263 806q-7 -93 6.5 -183.5t43 -170t70.5 -133.5q45 -61 115.5 -99t149.5 -48t156 5.5t136 60.5q35 27 65.5 73.5t53 100t38 108.5t19.5 103q6 63 3 115.5t-13 103.5q-6 35 -23.5 82t-39 93t-45 84t-42.5 56q-59 53 -169.5 74.5 t-243.5 5.5q-10 -2 -17.5 0t-17.5 0q-35 -6 -67.5 -40t-60.5 -75t-48.5 -82t-28.5 -61q-33 -80 -40 -173zM399 635q-10 78 0.5 157.5t39 148.5t71.5 101q23 18 51.5 26.5t63.5 14.5q31 4 65.5 4t68.5 -7t63.5 -20t47.5 -34q27 -31 31 -62.5t-11.5 -54t-46 -30t-69.5 13.5 q-8 4 -16 12t-19.5 16.5t-28 11.5t-40.5 -5q-25 -6 -36 -32t-14.5 -57.5t-2.5 -65.5t1 -56q2 -37 6.5 -70t14.5 -57.5t26.5 -38.5t45.5 -12q25 2 41 20.5t30.5 42t28.5 44t37 24.5q51 10 78.5 -8.5t36 -51t0 -70.5t-28.5 -65q-41 -53 -111.5 -74.5t-144.5 -16.5t-140.5 36 t-97.5 84t-41 131z" />
<glyph unicode="&#xaa;" />
<glyph unicode="&#xab;" horiz-adv-x="997" d="M104 475q4 47 45 103.5t76 115.5q12 20 26.5 50t31 57.5t38 50t50.5 31.5q29 10 68.5 -2.5t49.5 -40.5q8 -23 1 -50.5t-21 -54t-29.5 -50t-23.5 -38.5q-29 -53 -54.5 -91t-54.5 -75q20 -35 42 -63.5t43.5 -56t43 -57.5t43.5 -66q10 -16 25.5 -38t9.5 -59 q-4 -23 -20.5 -39t-40 -24t-52 -7t-55.5 17q-18 12 -34.5 34.5t-34 49.5t-33 53.5t-29.5 46.5q-16 23 -35.5 46.5t-37 49t-28 52t-10.5 55.5zM463 504q0 23 13 48.5t33.5 53t41 54t37.5 51.5q33 51 66.5 106t84.5 72q45 14 83 -5.5t42 -52.5q4 -23 -4 -47t-20.5 -48.5 t-26.5 -46t-22 -36.5q-27 -43 -54.5 -75.5t-50.5 -67.5q43 -59 71.5 -111.5t67.5 -119.5q10 -16 25.5 -38t13.5 -42q0 -35 -23.5 -52.5t-54 -23.5t-63.5 0t-53 22q-37 29 -53.5 76t-51.5 105q-14 23 -31.5 45t-34 44.5t-26.5 44t-10 44.5z" />
<glyph unicode="&#xac;" />
<glyph unicode="&#xad;" />
<glyph unicode="&#xae;" />
<glyph unicode="&#xaf;" />
<glyph unicode="&#xb0;" />
<glyph unicode="&#xb1;" />
<glyph unicode="&#xb2;" />
<glyph unicode="&#xb3;" />
<glyph unicode="&#xb4;" horiz-adv-x="759" d="M259 1211.5q5 33.5 23.5 70.5t36.5 66q18 33 40 68.5t49.5 63t61.5 43t81 9.5q55 -10 66.5 -38t-1 -64.5t-37 -74.5t-42.5 -67q-23 -35 -40.5 -68.5t-38 -59t-49 -39t-71.5 -5.5q-51 8 -67.5 35t-11.5 60.5z" />
<glyph unicode="&#xb5;" />
<glyph unicode="&#xb6;" />
<glyph unicode="&#xb7;" />
<glyph unicode="&#xb8;" />
<glyph unicode="&#xb9;" />
<glyph unicode="&#xba;" />
<glyph unicode="&#xbb;" />
<glyph unicode="&#xbc;" />
<glyph unicode="&#xbd;" />
<glyph unicode="&#xbe;" />
<glyph unicode="&#xbf;" />
<glyph unicode="&#xc0;" />
<glyph unicode="&#xc1;" />
<glyph unicode="&#xc2;" />
<glyph unicode="&#xc3;" />
<glyph unicode="&#xc4;" />
<glyph unicode="&#xc5;" />
<glyph unicode="&#xc6;" />
<glyph unicode="&#xc7;" />
<glyph unicode="&#xc8;" />
<glyph unicode="&#xc9;" />
<glyph unicode="&#xca;" />
<glyph unicode="&#xcb;" />
<glyph unicode="&#xcc;" />
<glyph unicode="&#xcd;" />
<glyph unicode="&#xce;" />
<glyph unicode="&#xcf;" />
<glyph unicode="&#xd0;" />
<glyph unicode="&#xd1;" />
<glyph unicode="&#xd2;" />
<glyph unicode="&#xd3;" />
<glyph unicode="&#xd4;" />
<glyph unicode="&#xd5;" />
<glyph unicode="&#xd6;" />
<glyph unicode="&#xd7;" />
<glyph unicode="&#xd8;" />
<glyph unicode="&#xd9;" />
<glyph unicode="&#xda;" />
<glyph unicode="&#xdb;" />
<glyph unicode="&#xdc;" />
<glyph unicode="&#xdd;" />
<glyph unicode="&#xde;" />
<glyph unicode="&#xdf;" />
<glyph unicode="&#xe0;" />
<glyph unicode="&#xe1;" />
<glyph unicode="&#xe2;" />
<glyph unicode="&#xe3;" />
<glyph unicode="&#xe4;" />
<glyph unicode="&#xe5;" />
<glyph unicode="&#xe6;" />
<glyph unicode="&#xe7;" />
<glyph unicode="&#xe8;" />
<glyph unicode="&#xe9;" />
<glyph unicode="&#xea;" />
<glyph unicode="&#xeb;" />
<glyph unicode="&#xec;" />
<glyph unicode="&#xed;" />
<glyph unicode="&#xee;" />
<glyph unicode="&#xef;" />
<glyph unicode="&#xf0;" />
<glyph unicode="&#xf1;" />
<glyph unicode="&#xf2;" />
<glyph unicode="&#xf3;" />
<glyph unicode="&#xf4;" />
<glyph unicode="&#xf5;" />
<glyph unicode="&#xf6;" />
<glyph unicode="&#xf7;" />
<glyph unicode="&#xf8;" />
<glyph unicode="&#xf9;" />
<glyph unicode="&#xfa;" />
<glyph unicode="&#xfb;" />
<glyph unicode="&#xfc;" />
<glyph unicode="&#xfd;" />
<glyph unicode="&#xfe;" />
<glyph unicode="&#xff;" />
<glyph unicode="&#x152;" />
<glyph unicode="&#x153;" />
<glyph unicode="&#x178;" />
<glyph unicode="&#x2c6;" />
<glyph unicode="&#x2dc;" />
<glyph unicode="&#x2000;" horiz-adv-x="805" />
<glyph unicode="&#x2001;" horiz-adv-x="1611" />
<glyph unicode="&#x2002;" horiz-adv-x="805" />
<glyph unicode="&#x2003;" horiz-adv-x="1611" />
<glyph unicode="&#x2004;" horiz-adv-x="537" />
<glyph unicode="&#x2005;" horiz-adv-x="402" />
<glyph unicode="&#x2006;" horiz-adv-x="268" />
<glyph unicode="&#x2007;" horiz-adv-x="268" />
<glyph unicode="&#x2008;" horiz-adv-x="201" />
<glyph unicode="&#x2009;" horiz-adv-x="322" />
<glyph unicode="&#x200a;" horiz-adv-x="89" />
<glyph unicode="&#x2010;" horiz-adv-x="747" d="M39 561q0 45 14.5 64.5t42 25.5t67.5 3t89 1q41 2 92 2.5t137 4.5q49 2 90 3t71 -5.5t46.5 -26t13.5 -58.5q-2 -29 -17 -45t-43 -25t-63.5 -11t-78.5 -5q-61 -4 -112.5 -8t-111.5 0q-47 4 -89 4t-75.5 6.5t-53 20.5t-19.5 49z" />
<glyph unicode="&#x2011;" horiz-adv-x="747" d="M39 561q0 45 14.5 64.5t42 25.5t67.5 3t89 1q41 2 92 2.5t137 4.5q49 2 90 3t71 -5.5t46.5 -26t13.5 -58.5q-2 -29 -17 -45t-43 -25t-63.5 -11t-78.5 -5q-61 -4 -112.5 -8t-111.5 0q-47 4 -89 4t-75.5 6.5t-53 20.5t-19.5 49z" />
<glyph unicode="&#x2012;" horiz-adv-x="747" d="M39 561q0 45 14.5 64.5t42 25.5t67.5 3t89 1q41 2 92 2.5t137 4.5q49 2 90 3t71 -5.5t46.5 -26t13.5 -58.5q-2 -29 -17 -45t-43 -25t-63.5 -11t-78.5 -5q-61 -4 -112.5 -8t-111.5 0q-47 4 -89 4t-75.5 6.5t-53 20.5t-19.5 49z" />
<glyph unicode="&#x2013;" horiz-adv-x="1024" d="M39 561q0 45 14.5 64.5t42 25.5t67.5 3t89 1q20 0 85.5 1t145.5 1t156 1.5t119 3.5q49 2 91 4t71.5 -4.5t45 -26t13.5 -60.5q0 -29 -16.5 -45t-43 -24t-63.5 -11t-80 -6q-31 -2 -101.5 -4t-149.5 -3t-149.5 -2t-99.5 1q-47 4 -89 4t-75.5 6.5t-53 20.5t-19.5 49z" />
<glyph unicode="&#x2014;" />
<glyph unicode="&#x2018;" />
<glyph unicode="&#x2019;" />
<glyph unicode="&#x201a;" />
<glyph unicode="&#x201c;" horiz-adv-x="706" d="M73 1147q7 78 29.5 148.5t62.5 116.5t99 38q31 -4 35 -29.5t-5 -57.5t-24.5 -65.5t-23.5 -54.5q49 6 74.5 -17.5t31.5 -61.5t-4 -82t-32.5 -80.5t-54.5 -58t-68 -11.5q-31 8 -63.5 28.5t-55.5 53.5q-8 55 -1 133zM407 1145q7 78 29.5 147.5t62.5 115.5t99 38 q31 -4 35 -28.5t-5.5 -57.5t-24.5 -65.5t-23 -53.5q49 4 74.5 -19.5t31.5 -60.5t-4 -82t-32.5 -80.5t-54.5 -56t-69 -12.5q-31 6 -63 27.5t-55 54.5q-8 55 -1 133z" />
<glyph unicode="&#x201d;" horiz-adv-x="706" d="M43 1223q-6 37 4 82t31.5 81.5t54.5 57t70 12.5q31 -8 62 -29.5t54 -54.5q8 -55 2 -133t-28.5 -147.5t-62.5 -116.5t-99 -37q-31 4 -35 29.5t5.5 57.5t23.5 64.5t25 53.5q-49 -6 -75 18.5t-32 61.5zM377 1220.5q-6 36.5 4 82t31.5 81t54.5 56t70 12.5q31 -8 62 -28.5 t54 -53.5q8 -55 2 -133t-28.5 -148.5t-62.5 -116.5t-99 -38q-31 4 -35 29.5t4 58.5t23.5 65.5t25.5 53.5q-49 -6 -74.5 18.5t-31.5 61z" />
<glyph unicode="&#x201e;" />
<glyph unicode="&#x2022;" horiz-adv-x="909" d="M238 510q-4 51 9 97t40.5 82t69 58.5t92.5 28.5q31 4 53 6t42.5 -1t42 -11t50.5 -27q27 -16 50.5 -43.5t35.5 -56.5q35 -78 14.5 -136t-73 -93t-123 -48.5t-136 -2t-113.5 47t-54 99.5z" />
<glyph unicode="&#x2026;" />
<glyph unicode="&#x202f;" horiz-adv-x="322" />
<glyph unicode="&#x2039;" />
<glyph unicode="&#x203a;" />
<glyph unicode="&#x205f;" horiz-adv-x="402" />
<glyph unicode="&#x20ac;" />
<glyph unicode="&#x2122;" />
<glyph unicode="&#x25fc;" horiz-adv-x="1024" d="M0 0z" />
<glyph unicode="&#xfb01;" />
<glyph unicode="&#xfb02;" />
<glyph unicode="&#xfb03;" />
<glyph unicode="&#xfb04;" />
</font>
</defs>
</svg>
